<svg xmlns="http://www.w3.org/2000/svg" width="1200" height="675" viewBox="0 0 1200 675" role="img" aria-labelledby="title description">
  <title id="title">DevOpsWorlwide article visual</title>
  <desc id="description">A cloud-native systems illustration used when an imported article image is unavailable.</desc>
  <defs>
    <linearGradient id="background" x1="0" y1="0" x2="1" y2="1"><stop stop-color="#07142f"/><stop offset="1" stop-color="#311260"/></linearGradient>
    <linearGradient id="accent" x1="0" y1="0" x2="1" y2="0"><stop stop-color="#38bdf8"/><stop offset="1" stop-color="#c084fc"/></linearGradient>
  </defs>
  <rect width="1200" height="675" fill="url(#background)"/>
  <g fill="none" stroke="url(#accent)" stroke-width="4" opacity=".75"><path d="M250 390h220l80-110h260l90 110h160"/><path d="M330 500h180l80-80h200l70 80h160"/></g>
  <g fill="#e0f2fe"><circle cx="250" cy="390" r="11"/><circle cx="470" cy="390" r="11"/><circle cx="550" cy="280" r="11"/><circle cx="810" cy="280" r="11"/><circle cx="900" cy="390" r="11"/><circle cx="1060" cy="390" r="11"/></g>
  <g fill="none" stroke="#a78bfa" stroke-width="9" opacity=".75"><path d="M545 210c13-66 111-83 149-27 58-42 143 0 131 71 50 22 36 104-23 104H553c-69 0-82-108-8-123Z"/></g>
  <text x="78" y="108" fill="#c4b5fd" font-family="Arial, Helvetica, sans-serif" font-size="25" font-weight="700" letter-spacing="4">DEVOPSWORLDWIDE</text>
  <text x="78" y="578" fill="#f8fafc" font-family="Arial, Helvetica, sans-serif" font-size="42" font-weight="700">Article visual</text>
  <text x="78" y="625" fill="#cbd5e1" font-family="Arial, Helvetica, sans-serif" font-size="25">The original illustration is temporarily unavailable.</text>
</svg>
